<svg xmlns="http://www.w3.org/2000/svg" width="1800" height="1000" viewBox="100 300 1800 1000">
  <style>
    @keyframes svg-16-b-main-anim {
      0% {
        transform: skewY(-10deg)
      }
      to {
        transform: skewY(10deg)
      }
    }

    .kof-line {
      transform-origin: 50% 50%;
      stroke-opacity: 0.5;
      animation: svg-16-b-main-anim 2s ease-in-out infinite alternate;
    }
  </style>
  <g fill="rgba(255,0,0,0.376)" fill-rule="evenodd" stroke="#000" stroke-linejoin="round" transform="translate(261 431)">
    <g stroke-width="8" transform="translate(25 75)">
      <polyline
        points="717.616 386.315 733.672 397.117 734.506 399.844 785.531 422.101 789.063 421.13 799.968 417.378 791.55 413.605 818.129 335.409 826.289 275.767" />
      <polyline points="727.83 251.78 728.136 271.81 723.597 306.299 700.842 372.729" />
      <polyline
        points="700.842 372.729 697.689 371.308 695.335 373.23 694.746 381.202 712.93 389.394 717.616 386.315" />
      <polyline points="880.02 270.893 881.255 270.072 894.513 245.427 892.812 241.277" />
      <polyline points="873.479 241.752 876.142 248.268 873.673 268.511 878.973 270.892" />
      <polyline points="961.362 9.146 961.211 4.262 958.982 .613 945.248 .61 943.478 9.114 943.519 10.499" />
      <line class="kof-line" x1="750.373" x2="744.34" y1="84.644" y2="81.249" />
      <polyline points="1091.639 197.937 1092.79 227.442 1156.963 227.117 1210.24 254.289" />
      <polyline points="1069.524 184.959 1070.362 196.967 1091.639 197.937" />
      <polyline points="1210.24 254.289 1216.79 265.405 1295.187 264.938" />
      <polyline
        points="1295.187 264.938 1296.066 271.896 1328.258 271.699 1341.588 268.014 1343.466 176.721 1333.588 122.684 1301.151 122.769 1288.618 128.877 1288.574 129.667" />
      <polyline points="1028.998 139.11 1026.796 126.999 1007.645 127.051" />
      <polyline points="1009.717 188.524 1021.536 188.475 1028.782 183.837 1029.415 176.557" />
      <polyline points="1288.574 129.667 1071.668 130.27 1064.649 135.12 1064.288 139.004" />
      <line class="kof-line" x1="1064.867" x2="1066.514" y1="176.42" y2="184.971" />
      <polyline points="680.105 180.304 680.599 190.273 714.252 190.134" />
      <polyline points="713.389 130.385 681.764 130.473 679.931 135.77 679.837 140.643" />
      <polyline points="415.648 198.665 417.219 201.787 665.926 200.697 668.131 194.829 668.379 180.349" />
      <polyline points="668.228 140.678 667.273 119.865 414.646 120.501 414.484 123.726" />
      <polyline points="414.484 123.726 395.626 123.775 394.801 138.216" />
      <polyline points="394.877 184.649 395.186 193.265 398.274 198.74 415.648 198.665" />
      <line class="kof-line" x1="381.803" x2="376.344" y1="138.254" y2="138.27" />
      <polyline points="375.811 175.923 376.019 181.173 378.161 184.715 394.877 184.649" />
      <polyline
        points="310.339 179.468 310.601 182.819 294.374 182.883 294.016 210.639 295.775 212.453 328.861 212.301 329.155 184.746 330.161 176.096" />
      <polyline
        points="393.747 138.219 394.386 117.11 393.415 114.947 362.841 67.643 328.806 58.344 311.912 58.362 310.961 138.521 310.3 144.068" />
      <polyline
        points="81.89 144.765 81.665 142.413 75.761 138.187 4.652 138.393 .47 158.866 3.215 183.44 10.036 187.129 80.472 186.847 81.592 180.352" />
      <polyline points="330.175 147.343 329.769 141.199 330.047 115.099" />
      <polyline points="364.132 86.039 381.409 124.283 381.803 138.254" />
      <polyline points="330.047 115.099 353.608 115.043 353.876 85.608" />
      <polyline points="983.6 215.367 999.148 210.006 1010.209 203.108 1009.717 188.524" />
      <polyline
        points="914.297 277.454 911.153 286.666 918.086 295.602 927.444 297.681 940.371 318.678 937.074 328.8 944.033 337.773 953.327 339.72 966.31 360.808 981.187 362.865 987.041 361.18 1016.721 344.366 1020.561 331.873 973.29 242.104 977.341 236.036 983.6 215.367" />
      <polyline points="714.252 190.134 715.023 243.499 719.554 249.763 727.83 251.78" />
      <polyline points="892.812 241.277 905.527 240.965 912.336 244.976 914.141 270.929" />
      <polyline points="1007.645 127.051 1006.201 84.207 1001.464 81.002 985.864 41.348 966.387 9.146 961.362 9.146" />
      <polyline points="716.528 85.207 712.87 94.493 713.389 130.385" />
      <line class="kof-line" x1="920.604" x2="750.373" y1="84.353" y2="84.644" />
      <polyline points="826.289 275.767 828.696 276.353 841.36 278.414 914.297 277.454" />
      <polyline points="743.602 63.13 929.44 58.203 920.604 84.353" />
      <polyline points="717.979 49.466 715.528 50.414 714.84 52.324 716.337 72.195 716.528 85.207" />
      <polyline points="943.519 10.499 918.269 16.434 741.885 33.535 718.325 42.644 717.613 44.622 717.979 49.466" />
      <polyline points="878.973 270.892 843.917 270.856 835.451 242.687" />
      <line class="kof-line" x1="310.3" x2="81.89" y1="144.068" y2="144.765" />
      <line class="kof-line" x1="81.592" x2="310.339" y1="180.352" y2="179.468" />
      <line class="kof-line" x1="353.876" x2="364.132" y1="85.608" y2="86.039" />
      <line class="kof-line" x1="375.771" x2="330.175" y1="147.201" y2="147.343" />
      <line class="kof-line" x1="330.161" x2="375.811" y1="176.096" y2="175.923" />
      <line class="kof-line" x1="668.379" x2="680.105" y1="180.349" y2="180.304" />
      <line class="kof-line" x1="679.837" x2="668.228" y1="140.643" y2="140.678" />
      <line class="kof-line" x1="743.905" x2="743.602" y1="81.5" y2="63.13" />
      <line class="kof-line" x1="835.451" x2="873.479" y1="242.687" y2="241.752" />
      <line class="kof-line" x1="914.141" x2="880.02" y1="270.929" y2="270.893" />
      <line class="kof-line" x1="1029.415" x2="1064.867" y1="176.557" y2="176.42" />
      <line class="kof-line" x1="1064.288" x2="1028.998" y1="139.004" y2="139.11" />
    </g>
    <g fill="rgba(143,26,189,0.089)"  stroke-linecap="round" stroke-width="2" transform="translate(0 69)">
      <polyline points="714.354 370.159 748.764 347.06 734.309 409.439" />
      <line class="kof-line" x1="768.12" x2="731.97" y1="307.054" y2="408.816" />
      <polyline points="719.097 402.99 751.069 309.621 755.67 274.621 755.034 233.414" />
      <polyline
        points="721.874 378.359 758.672 403.117 759.506 405.844 810.531 428.101 814.063 427.13 824.968 423.378 816.55 419.605 843.129 341.409 855.597 250.283" />
      <polyline points="752.449 232.783 753.136 277.81 748.597 312.299 717.741 402.38" />
      <polyline
        points="775.379 422.026 766.471 395.271 748.233 383.005 743.174 386.535 722.689 377.308 720.335 379.23 719.746 387.202 737.93 395.394 740.328 393.913 765.384 376.409" />
      <polyline points="795.4 243.028 794.778 272.562 787.484 323.379 758.215 418.556" />
      <polyline points="777.227 238.594 776.416 275.039 770.715 315.374 742.279 407.839" />
      <polyline points="699.854 402.344 721.859 385.593 763.121 404.182" />
      <line class="kof-line" x1="758.165" x2="734.957" y1="360.062" y2="413.669" />
      <polyline points="724.147 376.771 761.331 401.787 770.119 428.252" />
      <polyline points="736.311 414.297 761.331 401.787 781.952 375.641" />
      <line class="kof-line" x1="744.566" x2="847.884" y1="388.312" y2="433.372" />
      <polyline points="836.978 437.125 762.24 404.526 736.986 416.7" />
      <polyline points="884.207 290.743 906.255 276.072 919.513 251.427 905.922 218.27" />
      <polyline points="895.209 297.873 904.849 251.507 893.8 224.496" />
      <polyline points="889.019 224.611 901.142 254.268 898.673 274.511 926.778 287.137" />
      <line class="kof-line" x1="878.062" x2="900.298" y1="288.659" y2="273.396" />
      <polyline points="987.134 40.134 986.211 10.262 983.982 6.613 970.248 6.61 968.478 15.114 969.262 41.488" />
      <polyline points="973.311 40.538 972.402 10.26 1011.211 10.266" />
      <polyline
        points="814.953 242.316 833.079 222.827 832.816 210.026 821.563 203.681 810.558 210.125 794.502 230.009" />
      <polyline points="854.638 210.169 822.071 229.29 810.802 222.933 810.081 185.13" />
      <polyline points="962.2 241.32 961.111 203.632 949.923 197.336 917.553 216.428" />
      <polyline points="982.996 203.605 950.639 222.741 939.436 216.433 938.401 178.737" />
      <polyline points="976.914 57.567 994.937 37.702 994.547 25.307 964.357 8.403" />
      <line class="kof-line" x1="1016.548" x2="962.644" y1="25.134" y2="56.481" />
      <polyline points="951.377 25.493 984.255 43.913 966.098 64.179" />
      <polyline points="972.066 .323 973.187 37.712 955.344 58.48" />
      <line class="kof-line" x1="1007.983" x2="983.494" y1="32.831" y2="19.118" />
      <polyline points="1004.266 7.071 972.815 25.312 955.264 46.319" />
      <polyline points="781.113 131.073 780.465 93.508 769.34 87.249 736.759 106.034" />
      <polyline points="802.325 93.565 769.756 112.393 758.616 106.122 758.022 68.55" />
      <polyline points="964.134 130.689 963.038 93.184 951.932 86.952 919.579 105.815" />
      <polyline points="984.986 93.082 952.646 111.989 941.524 105.745 940.482 68.233" />
      <polyline
        points="864.872 281.62 804.682 265.112 802.538 190.689 839.707 188.599 840.762 275.008 817.743 294.333" />
      <line class="kof-line" x1="1015.71" x2="718.974" y1="166.4" y2="167.433" />
      <polyline points="741.377 111.401 743.973 167.346 741.771 219.783" />
      <polyline points="985.239 214.944 990.71 166.487 984.862 113.808" />
      <polyline points="1273.524 274.574 1187.53 230.722 1122.767 231.045 1120.726 179.187" />
      <polyline points="1115.664 178.956 1117.79 233.442 1181.963 233.117 1257.51 271.647" />
      <polyline points="1264.695 289.541 1227.746 226.904 1176.248 201.846 1078.309 197.373" />
      <polyline points="1102.857 134.485 1103.283 198.513 1073.57 215.219" />
      <polyline points="1092.785 166.02 1095.362 202.967 1141.613 205.075" />
      <polyline points="1222.548 238.75 1241.79 271.405 1345.187 270.79" />
      <polyline points="1218.07 279.302 1251.993 268.009 1363.019 267.356" />
      <polyline
        points="1317.054 246.135 1321.066 277.896 1353.258 277.699 1366.588 274.014 1368.466 182.721 1358.588 128.684 1326.151 128.769 1313.618 134.877 1312.182 160.628" />
      <line class="kof-line" x1="1391.587" x2="1308.848" y1="273.863" y2="274.362" />
      <polyline points="1321.833 104.145 1335.632 182.849 1333.847 274.212 1297.044 284.821" />
      <line class="kof-line" x1="1081.482" x2="965.088" y1="158.688" y2="159.073" />
      <line class="kof-line" x1="988.156" x2="990.088" y1="185.058" y2="158.991" />
      <polyline
        points="1009.717 194.627 1046.536 194.475 1053.782 189.837 1056.482 158.771 1051.796 132.999 1007.646 133.119" />
      <line class="kof-line" x1="1078.782" x2="1009.562" y1="189.736" y2="190.015" />
      <line class="kof-line" x1="1099.581" x2="1093.078" y1="135.766" y2="204.378" />
      <polyline points="1029.415 182.653 1090.623 182.417 1095.437 179.489 1029.668 179.739" />
      <polyline points="1103.596 134.304 1098.582 186.8 1069.984 203.677" />
      <line class="kof-line" x1="1119.136" x2="1028.998" y1="144.915" y2="145.185" />
      <polyline points="1089.305 120.461 1097.222 160.655 1031.306 160.876" />
      <polyline points="1091.799 111.749 1101.219 159.19 1364.612 158.316" />
      <polyline points="1352.353 135.559 1096.668 136.27 1089.649 141.12 1086.974 169.897" />
      <line class="kof-line" x1="1085.138" x2="1091.514" y1="157.871" y2="190.971" />
      <polyline
        points="440.551 130.49 438.008 160.857 438.548 175.22 438.316 165.643 426.337 161.27 430.424 147.338 455.863 172.854" />
      <polyline
        points="74.119 161.702 107.146 165.683 111.185 166.605 98.833 166.467 98.645 165.635 98.881 164.403 103.841 189.209" />
      <polyline points="703.867 161.334 705.599 196.273 764.645 196.029" />
      <line class="kof-line" x1="769.518" x2="682.449" y1="191.537" y2="191.889" />
      <polyline points="708.543 136.582 707.449 191.788 696.066 219.385" />
      <polyline points="770.333 161.369 708.048 161.578 705.487 111.505" />
      <polyline points="767.399 136.305 706.764 136.473 704.931 141.77 704.359 171.639" />
      <polyline points="668.228 146.753 706.566 146.638 708.682 188.235" />
      <polyline points="668.772 163.398 707.412 163.267 706.526 208.23" />
      <polyline points="668.431 183.383 707.018 183.235 705.793 186.301 668.379 186.447" />
      <polyline
        points="694.976 184.819 692.273 125.865 439.646 126.501 437.935 160.691 439.262 201.908 442.219 207.787 690.926 206.697 693.131 200.829 694.258 134.849" />
      <line class="kof-line" x1="412.935" x2="718.831" y1="160.773" y2="159.763" />
      <line class="kof-line" x1="414.262" x2="718.131" y1="202.015" y2="200.723" />
      <polyline
        points="464.484 129.661 420.626 129.775 418.824 161.294 420.186 199.265 423.274 204.74 465.648 204.557" />
      <line class="kof-line" x1="393.824" x2="462.952" y1="161.377" y2="161.148" />
      <line class="kof-line" x1="395.187" x2="464.174" y1="199.37" y2="199.081" />
      <polyline points="444.8 144.143 401.344 144.27 400.094 163.763 401.019 187.173 403.161 190.715 444.877 190.549" />
      <line class="kof-line" x1="375.094" x2="443.91" y1="163.847" y2="163.615" />
      <line class="kof-line" x1="376.019" x2="444.75" y1="187.27" y2="187.002" />
      <polyline points="425.771 153.122 352.927 153.35 349.891 190.32" />
      <polyline points="353.861 204.82 351.937 165.404 425.152 165.154" />
      <polyline points="425.811 181.829 354.321 182.099 352.642 179.85 425.722 179.577" />
      <polyline
        points="407.506 169.244 406.409 130.283 387.711 88.892 353.557 87.456 352.944 144.471 348.055 188.668" />
      <polyline points="308.655 163.961 350.804 163.819 352.622 188.752 352.056 241.485" />
      <polyline
        points="417.989 169.207 419.386 123.11 418.415 120.947 387.841 73.643 353.806 64.344 336.912 64.362 335.961 144.521 333.655 163.877 335.601 188.819 319.374 188.883 319.016 216.639 320.775 218.453 353.861 218.301 354.155 190.746 358.051 157.264" />
      <polyline points="360.3 149.992 101.399 150.782 94.408 190.33" />
      <polyline points="102.935 208.491 98.76 165.712 358.736 164.83" />
      <polyline points="360.339 185.371 104.844 186.359 100.507 183.609 360.125 182.623" />
      <polyline
        points="109.273 175.651 106.665 148.413 100.761 144.187 29.652 144.393 25.47 164.866 28.215 189.44 35.036 193.129 105.472 192.847 110.843 161.716" />
      <line class="kof-line" x1="105.129" x2="92.765" y1="119.572" y2="189.24" />
      <polyline points=".47 164.95 97.134 164.625 101.972 214.041" />
      <polyline points="3.216 189.538 99.536 189.159 126.709 206.038" />
      <polyline points="356.821 178.289 354.769 147.199 355.312 96.101" />
      <polyline points="329.701 121.16 378.608 121.043 379.103 66.609" />
      <line class="kof-line" x1="353.297" x2="354.169" y1="144.273" y2="63.056" />
      <polyline points="367.905 142.329 353.565 119.274 402.591 119.159" />
      <polyline points="378.117 61.784 377.591 119.218 390.776 142.882" />
      <polyline points="370.023 237.374 352.324 216.487 294.016 216.754" />
      <polyline points="821.704 267.619 748.621 249.811 743.974 243.39 742.88 169.01" />
      <polyline points="861.875 302.043 858.678 242.789 964.263 240.208" />
      <polyline points="984.966 229.518 1024.148 216.006 1035.209 209.108 1033.013 143.953" />
      <polyline
        points="1058.844 200.961 1009.644 217.92 1002.341 242.036 998.29 248.104 1045.561 337.873 1041.721 350.366 1012.041 367.18 1006.187 368.865 991.31 366.808 978.327 345.72 969.033 343.773 962.074 334.8 965.371 324.678 952.444 303.681 943.086 301.602 936.153 292.666 947.371 259.793" />
      <line class="kof-line" x1="1027.337" x2="914.275" y1="242.518" y2="240.337" />
      <polyline points="738.891 171.136 740.023 249.499 744.554 255.763 777.12 263.697" />
      <polyline points="1023.102 251.166 939.271 240.819 964.513 261.507" />
      <polyline points="892.819 247.892 930.527 246.965 937.336 250.976 940.875 301.869" />
      <polyline
        points="1021.991 319.379 989.936 252.545 998.29 248.104 945.177 245.66 947.451 278.109 930.578 311.887" />
      <polyline
        points="1033.672 163.514 1031.201 90.207 1026.464 87.002 1010.864 47.348 991.387 15.146 961.001 15.145" />
      <polyline points="788.418 90.621 741.727 90.701 737.87 100.493 738.75 161.383" />
      <line class="kof-line" x1="741.36" x2="742.767" y1="65.704" y2="161.371" />
      <line class="kof-line" x1="971.1" x2="750.373" y1="90.31" y2="90.686" />
      <polyline points="892.652 292.487 860.528 277.08 816.439 266.336" />
      <polyline points="827 275.849 853.696 282.353 866.36 284.414 964.295 283.125" />
      <polyline points="743.611 69.792 954.44 64.203 937.601 114.037" />
      <line class="kof-line" x1="938.046" x2="979.09" y1="83.077" y2="35.826" />
      <polyline
        points="1007.649 15.147 974.279 15.146 943.269 22.434 766.885 39.535 743.325 48.644 742.613 50.622 744.138 70.831 732.447 101.561" />
      <polyline points="766.294 46.444 740.528 56.414 739.84 58.324 741.337 78.195 741.895 116.205" />
      <line class="kof-line" x1="738.64" x2="743.925" y1="31.486" y2="101.281" />
      <polyline points="943.784 110.729 962.695 54.7 768.448 59.805 769.318 112.497" />
      <polyline points="745.558 115.692 744.86 68.949 741.441 23.715" />
      <polyline points="972.369 276.964 868.917 276.856 851.481 218.847" />
      <polyline points="862.908 252.589 870.111 281.676 974.165 280.836" />
      <polyline points="952.771 312.569 975.168 341.437 987.125 342.492 1013.524 385.331" />
      <polyline points="1065.453 342.507 1000.409 364.048 1036.182 373.68" />
      <line class="kof-line" x1="986.987" x2="947.531" y1="342.267" y2="278.24" />
      <polyline points="942.443 334.643 973.871 320.984 968.096 332.321 938.956 344.315" />
      <polyline points="930.145 314.985 960.646 299.523 948.795 298.599 941.75 289.522 914.357 304.909" />
      <line class="kof-line" x1="353.898" x2="414.11" y1="90.559" y2="93.087" />
      <line class="kof-line" x1="416.949" x2="419.174" y1="169.21" y2="95.958" />
      <line class="kof-line" x1="717.457" x2="744.051" y1="402.326" y2="332.878" />
      <polyline points="762.737 395.382 724.884 378.306 723.648 379.291 747.739 391.281" />
      <polyline points="763.122 395.552 725.282 378.487 724.257 379.302 747.5 391.675" />
      <polyline
        points="770.795 399.071 749.464 384.286 749.003 384.685 750.881 379.869 753.299 378.248 739.899 407.153" />
      <line class="kof-line" x1="744.526" x2="839.466" y1="388.194" y2="429.6" />
      <line class="kof-line" x1="835.458" x2="923.471" y1="249.302" y2="247.138" />
    </g>
    <g stroke="rgb(217,255,0)" stroke-opacity="0.5" stroke-width="20" transform="translate(106)">
      <polyline
        points="780.14 602.405 788.721 593.676 789.985 592.39 814.67 567.279 816.294 565.627 821.407 560.425 825.498 556.264 862.12 519.01 888.813 491.857" />
      <polyline points="627.941 322.565 623.617 341.943 616.109 375.591 600.953 443.514" />
      <polyline
        points="603.444 467.974 604.893 469.148 606.166 470.179 609.514 472.891 617.868 479.657 619.049 480.613 620.218 481.56" />
      <polyline points="806.38 349.072 806.939 347.779 817.482 323.368 819.171 319.456" />
      <polyline points="780.768 318.96 781.931 325.13 785.302 343.007 786.262 348.1" />
      <polyline points="878.522 59.891 875.878 60.091 873.564 60.267 866.131 60.83 861.43 61.187 860.68 61.244" />
      <polyline points="669.827 158.709 663.797 155.778 663.359 155.566" />
      <polyline points="982.577 331.998 1005.39 342.837 1054.971 366.395 1101.177 388.35" />
      <polyline points="975.957 281.375 983.942 286.061 998.071 294.353" />
      <polyline points="1126.063 354.629 1138.068 356.134 1211.01 365.279" />
      <polyline
        points="1345.354 333.526 1345.166 329.676 1344.302 312.007 1343.931 304.416 1341.48 254.296 1340.006 224.145 1339.136 206.341 1338.762 198.688 1338.74 198.254" />
      <polyline points="959.63 193.512 951.276 188.794 938.278 181.453" />
      <polyline points="936.628 276.545 945.023 271.445 951.135 267.732 956.326 264.578" />
      <polyline points="1206.698 183.636 994.571 192.468 986.227 192.815 982.412 192.974" />
      <polyline points="978.054 254.59 981.515 260.936 982.712 263.13" />
      <polyline points="592.573 277.992 600.385 280.241 626.721 287.822" />
      <polyline points="625.691 183.479 600.491 191.184 596.023 192.549 592.14 193.737" />
      <polyline points="338.284 323.825 341.519 323.591 571.801 306.902 577.605 306.481 591.014 305.509" />
      <polyline points="590.678 164.036 571.571 162.759 339.895 147.281 336.934 147.083" />
      <polyline points="316.974 176.297 305.834 184.497 297.29 190.787" />
      <polyline points="300.2 279.917 305.748 283.661 309.792 286.39 320.971 293.934" />
      <polyline points="291.439 206.941 289.154 210.331 285.407 215.888" />
      <polyline points="287.511 266.874 291.347 268.63 294.371 270.013 306.577 275.6" />
      <polyline
        points="244.457 343.336 245.015 343.241 247.713 342.782 252.328 341.997 252.748 341.925 255.433 341.469 258.249 340.99 262.831 340.21 264.278 339.964" />
      <polyline
        points="297.821 .283 289.728 .85 288.819 .914 267.233 2.427 253.712 3.375 247.237 3.829 238.376 4.45 216.515 5.982 214.374 6.132" />
      <polyline
        points="204.131 221.464 204.127 221.862 204.117 223.086 204.017 235.071 203.988 238.593 203.953 242.76 203.942 244.068 203.843 255.94 203.833 257.05" />
      <polyline points="250.128 222.34 250.103 216.184 250 190.096" />
      <polyline points="273.409 164.329 286.665 203.499 291.079 216.544" />
      <polyline points="284.615 218.839 295.209 205.728 308.445 189.348" />
      <polyline points="921.455 308.712 931.201 298.695 938.925 290.756 947.572 281.868" />
      <polyline
        points="1030.442 572.514 1032.617 570.566 1035.144 568.302 1037.286 566.383 1042.795 561.448 1045.173 559.317 1047.71 557.044 1049.832 555.143 1055.365 550.187 1058.72 547.181 1060.081 545.961 1067.703 539.134 1070.623 536.517 1074.864 532.718 1079.097 528.926 1083.322 525.14 1087.54 521.362 1093.29 516.21 1094.92 514.75 1099.745 510.428" />
      <polyline points="607.065 270.902 611.198 289.668 617.474 318.16 618.982 325.005 620.643 332.548" />
      <polyline points="784.028 336.263 789.844 344.349 793.459 349.374 805.357 365.915" />
      <polyline points="959.949 188.977 945.127 151.219 943.15 146.181 928.416 108.647 915.403 75.499 913.666 71.073" />
      <polyline points="628.033 159.687 627.35 169.515 624.894 204.864" />
      <polyline points="839.604 159.353 749.302 159.507 669.373 159.644" />
      <polyline points="745.176 356.659 747.647 356.707 760.442 356.952 833.184 358.346" />
      <polyline points="654.387 206.645 808.506 225.125 831.389 227.868" />
      <polyline points="629.435 124.16 629.334 126.658 629.255 128.587 628.487 147.53 627.984 159.901" />
      <polyline points="857.57 56.852 832.715 61.147 662.903 90.485 638.699 94.667 636.685 95.015 632.029 95.819" />
      <polyline points="823.852 305.96 800.186 290.623 780.329 277.755" />
      <line class="kof-line" x1="229.3" x2=".89" y1="219.068" y2="219.765" />
      <line class="kof-line" x1=".592" x2="229.339" y1="255.352" y2="254.468" />
      <line class="kof-line" x1="272.876" x2="283.132" y1="160.608" y2="161.039" />
      <line class="kof-line" x1="294.771" x2="249.175" y1="222.201" y2="222.343" />
      <line class="kof-line" x1="249.161" x2="294.811" y1="251.096" y2="250.923" />
      <line class="kof-line" x1="313.801" x2="312.747" y1="213.216" y2="213.219" />
      <line class="kof-line" x1="587.379" x2="599.105" y1="255.349" y2="255.304" />
      <line class="kof-line" x1="598.837" x2="587.228" y1="215.643" y2="215.678" />
      <line class="kof-line" x1="662.905" x2="662.602" y1="156.5" y2="138.13" />
      <line class="kof-line" x1="754.451" x2="792.479" y1="317.687" y2="316.752" />
      <line class="kof-line" x1="833.141" x2="799.02" y1="345.929" y2="345.893" />
      <line class="kof-line" x1="948.415" x2="983.867" y1="251.557" y2="251.42" />
      <line class="kof-line" x1="983.288" x2="947.998" y1="214.004" y2="214.11" />
    </g>
  </g>
</svg>