<svg xmlns="http://www.w3.org/2000/svg" width="32" height="32" viewBox="0 0 32 32">
  <path fill="#F2F0E6" fill-rule="evenodd" d="M16,3.00445724 C16.2731207,3.00445724 16.5442743,3.01287975 16.8132151,3.02947922 L16.8157011,3.02963289 L16.8779972,3.03363856 C16.9656452,3.03948381 17.0530554,3.04619775 17.1402194,3.05377185 L16.8157011,3.02963289 C16.9987629,3.04096664 17.1807991,3.05608898 17.3617322,3.07492245 C17.4409104,3.08316529 17.5196985,3.09209687 17.5982697,3.10172946 C17.6816229,3.11194575 17.7651188,3.12300603 17.8483606,3.13485484 C17.9158455,3.14446358 17.9826387,3.15450742 18.0492634,3.16505739 C18.1365482,3.17887521 18.2240608,3.19365449 18.3112717,3.20930355 C18.3790985,3.22147682 18.4462944,3.23408832 18.5133059,3.24721467 C18.6016363,3.26451323 18.6901637,3.282819 18.7783569,3.3020199 C18.7848922,3.30344303 18.7908597,3.30474694 18.7968256,3.30605494 C19.5566628,3.47256179 20.2928794,3.706061 20.9976922,3.99982179 C17.1340068,4 14,7.13400675 14,11 C14,14.8659932 17.1340068,18 21,18 C24.8659932,18 28,14.8659932 28,11 C28.2945941,11.7029582 28.5287603,12.4379731 28.6962127,13.198263 L28.6950679,13.1951872 L28.725808,13.3362281 C28.7381029,13.3951137 28.7499984,13.4541473 28.7614919,13.5133257 L28.6950679,13.1951872 C28.7371161,13.3854569 28.7749697,13.5773184 28.8085323,13.7706655 C28.8228016,13.8516326 28.8361049,13.9330081 28.8486481,14.0146359 C28.8569276,14.0695351 28.8650348,14.1245651 28.8727948,14.1797075 C28.8866083,14.2770778 28.8992013,14.3747227 28.9107039,14.4727025 C28.9171595,14.5282894 28.9233466,14.5840266 28.9291793,14.63987 C28.9387176,14.7307541 28.9472728,14.8220352 28.9548791,14.9135861 C28.9597153,14.9720903 28.9641803,15.0305402 28.9682568,15.0890977 C28.9703197,15.1185047 28.9722898,15.1482823 28.9741594,15.1780871 C28.9913576,15.4531504 29,15.7277946 29,16.0044572 C29,23.184159 23.1797017,29.0044572 16,29.0044572 C8.82029825,29.0044572 3,23.184159 3,16.0044572 C3,8.82475549 8.82029825,3.00445724 16,3.00445724 Z M14.1530961,5.15851046 L13.9856166,5.18774855 C8.87278661,6.13441801 5,10.6171687 5,16.0044572 C5,22.0795895 9.92486775,27.0044572 16,27.0044572 C21.4489643,27.0044572 25.9725613,23.0424886 26.8471742,17.8421682 C25.2742076,19.1875126 23.2319871,20 21,20 C16.0294373,20 12,15.9705627 12,11 C12,8.7706348 12.8105797,6.73059062 14.1530961,5.15851046 Z"/>
</svg>
